<?xml version="1.0" encoding="utf-8"?>
<!-- Generator: Adobe Illustrator 18.0.0, SVG Export Plug-In . SVG Version: 6.00 Build 0)  -->
<!DOCTYPE svg PUBLIC "-//W3C//DTD SVG 1.1//EN" "http://www.w3.org/Graphics/SVG/1.1/DTD/svg11.dtd">
<svg version="1.1" id="Layer_1" xmlns="http://www.w3.org/2000/svg" xmlns:xlink="http://www.w3.org/1999/xlink" x="0px" y="0px"
	 viewBox="0 0 631.9 631.9" enable-background="new 0 0 631.9 631.9" xml:space="preserve">
<g>
	<polygon fill="none" stroke="#00EDFF" stroke-width="12" stroke-miterlimit="10" points="315.9,397.7 215,342 215,216.1 
		315.9,163.6 416.8,215.7 416.8,341.7 	"/>
	<polygon fill="#FFFFFF" points="383.8,241.2 366.3,314.6 341.9,264.5 322.1,275.5 322.1,377.3 341.9,366.3 341.9,310.1 
		366.3,352.9 383.8,277.9 383.8,343 403.6,332 403.6,230.2 	"/>
	<polygon fill="#00EDFF" points="290.2,266.5 290.2,306.3 250.1,285 250.1,244.4 228.6,232.5 228.6,334.3 250.1,346.2 250.1,306.9 
		290.2,328.2 290.2,368.3 310.1,379.3 310.1,277.5 	"/>
	<polygon fill="#00EDFF" stroke="#231F20" stroke-width="3.636093e-002" stroke-miterlimit="10" points="244.1,216.1 234.8,220.6 
		244.4,225.6 253.7,220.7 	"/>
	<polygon fill="#FFFFFF" points="267.5,228.6 258.1,233.1 267.7,238.2 277.1,233.3 	"/>
	<polygon fill="#00EDFF" stroke="#231F20" stroke-width="3.636093e-002" stroke-miterlimit="10" points="314.2,253.7 304.8,258.2 
		314.4,263.3 323.8,258.4 	"/>
	<polygon fill="#FFFFFF" points="267.9,216.3 258.6,220.8 268.2,225.9 277.5,220.9 	"/>
	<polygon fill="#4F4F4F" points="291.3,228.9 281.9,233.3 291.5,238.4 300.8,233.5 	"/>
	<polygon fill="#4F4F4F" points="268.3,204 259,208.5 268.6,213.5 277.9,208.6 	"/>
	<polygon fill="#00EDFF" stroke="#231F20" stroke-width="3.636093e-002" stroke-miterlimit="10" points="315,229.1 305.7,233.6 
		315.3,238.6 324.6,233.7 	"/>
	<polygon fill="#FFFFFF" points="303.8,210.5 294.4,215 304,220 313.4,215.1 	"/>
	<polygon fill="#00EDFF" stroke="#231F20" stroke-width="3.636093e-002" stroke-miterlimit="10" points="304.2,198.2 294.9,202.6 
		304.5,207.7 313.8,202.8 	"/>
	<polygon fill="#FFFFFF" points="327.6,210.7 318.2,215.2 327.8,220.3 337.1,215.3 	"/>
	<polygon fill="#FFFFFF" points="350.9,223.3 341.6,227.7 351.2,232.8 360.5,227.9 	"/>
	<polygon fill="#4F4F4F" points="362.6,229.5 353.2,234 362.8,239.1 372.2,234.1 	"/>
	<polygon fill="#4F4F4F" points="351.3,210.9 342,215.4 351.6,220.5 360.9,215.5 	"/>
	<polygon fill="#FFFFFF" points="316.7,179.8 307.4,184.3 317,189.3 326.3,184.4 	"/>
	<polygon fill="#FFFFFF" points="340.1,192.3 330.7,196.8 340.3,201.9 349.7,197 	"/>
	<polygon fill="#4F4F4F" points="386.8,217.4 377.4,221.9 387,227 396.4,222 	"/>
</g>
<text transform="matrix(1 0 0 1 134.8044 473.1425)"><tspan x="0" y="0" fill="#00EDFF" stroke="#231F20" stroke-width="3.636000e-002" stroke-miterlimit="10" font-family="'Telegrafico'" font-size="70" letter-spacing="-7">HACK</tspan><tspan x="146.6" y="0" fill="#FFFFFF" font-family="'Telegrafico'" font-size="70" letter-spacing="-7">MANIPAL</tspan></text>
</svg>
